<svg xmlns="http://www.w3.org/2000/svg" viewBox="0 0 566.93 141.73"><title>logo</title><path d="M24,25.57a25.21,25.21,0,0,1,9-8.07,27,27,0,0,1,9.64-2.75c3.52-.46,6.21-.81,9.24.39,2.2.88,3.59,2.18,5.9,4.33,2.7,2.52,2.89,3.52,5.7,5.9A21.83,21.83,0,0,0,68,28.52a19.78,19.78,0,0,0,8.06,2,21.05,21.05,0,0,0,9.24-1.37,22.71,22.71,0,0,0,7.08-4.72c2.69-2.46,3.72-4.35,7.47-7.28a22.35,22.35,0,0,1,2.17-1.57c6.57-4,16.53.44,17.7,1a27.67,27.67,0,0,1,12.78,12.59,31.64,31.64,0,0,1,3.34,13,35.94,35.94,0,0,1-.39,8.07c-3.14,20.22-12.17,57.45-13,64.13a28.65,28.65,0,0,1-.81,4.13,16.3,16.3,0,0,1-2.06,5.38c-2,2.86-5.84,4.18-9.15,4.06a12,12,0,0,1-8.11-3.76,11.71,11.71,0,0,1-2.28-3.69C97,112.56,89.39,90.1,87.51,84.86A85.39,85.39,0,0,0,79,67.16C69.69,52.76,57.82,45,47.19,38.05A156.47,156.47,0,0,0,24,25.57Z" style="fill:#fff"/><path d="M23.67,26.63a20.39,20.39,0,0,0-2.88,5A22.42,22.42,0,0,0,19.32,39a50.75,50.75,0,0,0,.88,13.12c2.4.28,5.83.77,9.88,1.63A88.89,88.89,0,0,1,56.34,63a78.67,78.67,0,0,1,20,16.07h2.42a71.32,71.32,0,0,0-12.3-21.68c-5-6-9.77-9.62-17.25-15.34A135.51,135.51,0,0,0,32.44,31C29,29.12,26,27.66,23.67,26.63Z" style="fill:#31ae6d"/><path d="M20.35,54.18a119.88,119.88,0,0,1,14.89,4C42,60.43,49.4,63,57.52,68.63A70.3,70.3,0,0,1,70.35,80.14l-.74,2.06a89.26,89.26,0,0,0-29.94-8.85l-15.93.15Z" style="fill:#16b094"/><path d="M24.48,76.3A80.75,80.75,0,0,1,38.19,77,73.85,73.85,0,0,1,57.81,82.5a66.13,66.13,0,0,1,8.26,4.42,149.51,149.51,0,0,0-17.4-.15c-4.85.25-7.59.64-8.26.74a71.92,71.92,0,0,0-13.28,3.25Q25.81,83.53,24.48,76.3Z" style="fill:#0991a3"/><path d="M28.31,93.71a64.47,64.47,0,0,1,12-2.07,70.81,70.81,0,0,1,12,.15,91.66,91.66,0,0,1,11.35,1.62,73.43,73.43,0,0,0-32.45,13Q29.72,100,28.31,93.71Z" style="fill:#0db2b8"/><path d="M31.85,110.08a65.26,65.26,0,0,1,12.1-6.2A66,66,0,0,1,61.5,99.75,87.3,87.3,0,0,0,35.24,123.2a39.26,39.26,0,0,1-3.39-13.12Z" style="fill:#0dbbc1"/><path d="M38,125.56a77,77,0,0,1,8-8.26,75.69,75.69,0,0,1,12.2-8.84,73.17,73.17,0,0,0-2.36,9.34,12.87,12.87,0,0,1-1.28,4.42A11,11,0,0,1,49,126.84C43.63,128.94,38.6,126,38,125.56Z" style="fill:#0db2b8"/><path d="M197.71,42.7h5.22V99.81h-5.22l-36.3-48.05V99.81h-5.23V42.7h5.23l36.3,48.06Z" style="fill:#fff"/><path d="M213.58,64.53a21.05,21.05,0,0,1,35.94,14.89,21.05,21.05,0,1,1-35.94-14.89ZM239.77,68a15,15,0,0,0-11.22-4.65A15.29,15.29,0,0,0,217.25,68a16.36,16.36,0,0,0,0,22.81,15.29,15.29,0,0,0,11.26,4.69,15.09,15.09,0,0,0,11.18-4.65,16.65,16.65,0,0,0,0-22.85Z" style="fill:#fff"/><path d="M254,99.81V78.6q0-9.87,4.53-14.85t12.2-5a6.27,6.27,0,0,1,1.22.08v5a7.19,7.19,0,0,0-1.22-.08,10.34,10.34,0,0,0-8.41,3.75q-3.09,3.77-3.1,11.1V99.81Z" style="fill:#fff"/><path d="M297.24,64H287V80.39Q287,93.45,297.24,95v5.06A16.47,16.47,0,0,1,286,94.47q-4.16-4.86-4.24-13.91V64h-6.12V59h6.12V46.13H287V59h10.28Z" style="fill:#fff"/><path d="M319,58.37q8.16,0,13.06,5t4.89,15V99.81h-5.22V78.36q0-7.42-3.43-11.22a11.89,11.89,0,0,0-9.3-3.8,12,12,0,0,0-9.3,3.72Q306.3,70.77,306.3,78V99.81h-5.23V42.7h5.23V65.06Q310.37,58.37,319,58.37Z" style="fill:#fff"/><path d="M379.39,42.7a29,29,0,0,1,20.89,8.16,27.12,27.12,0,0,1,8.48,20.4,27.1,27.1,0,0,1-8.48,20.39,29,29,0,0,1-20.89,8.16H362.67V42.7Zm0,52.13a23.75,23.75,0,0,0,17.22-6.73,22.5,22.5,0,0,0,6.93-16.84,22.52,22.52,0,0,0-6.93-16.85,23.75,23.75,0,0,0-17.22-6.73h-11.5V94.83Z" style="fill:#fff"/><path d="M418.88,94.35a20.34,20.34,0,0,1-6-14.85,20.69,20.69,0,0,1,6-14.93,19.65,19.65,0,0,1,14.72-6.2,20.16,20.16,0,0,1,14.49,5.75,20.37,20.37,0,0,1,6.24,14.72,11.56,11.56,0,0,1-.08,2.21h-35.9a14.52,14.52,0,0,0,4.57,10.28,14.81,14.81,0,0,0,10.68,4.16,15.55,15.55,0,0,0,12.65-5.88h6.36a21.14,21.14,0,0,1-7.95,7.92,21.6,21.6,0,0,1-11,2.93A20,20,0,0,1,418.88,94.35Zm-.57-17.71h30.43a15.74,15.74,0,0,0-5.1-9.5,14.4,14.4,0,0,0-10-3.8,14.67,14.67,0,0,0-10.12,3.8A16,16,0,0,0,418.31,76.64Z" style="fill:#fff"/><path d="M489.45,99.81V78.36q0-7.42-3.43-11.22a13.28,13.28,0,0,0-18.6,0Q464,70.94,464,78.36V99.81h-5.23V78.36q0-10,4.9-15t13.05-5q8.16,0,13.06,5t4.89,15V99.81Z" style="fill:#fff"/><path d="M518.33,64H508.05V80.39q0,13.06,10.28,14.61v5.06a16.47,16.47,0,0,1-11.26-5.59q-4.15-4.86-4.24-13.91V64h-6.12V59h6.12V46.13h5.22V59h10.28Z" style="fill:#fff"/></svg>