<svg xmlns="http://www.w3.org/2000/svg" viewBox="0 0 283.46 283.46"><title>logo</title><path d="M74.71,58.08A26.43,26.43,0,0,0,71,64.5,29.25,29.25,0,0,0,69.11,74a65.88,65.88,0,0,0,1.14,16.89c3.09.36,7.5,1,12.72,2.09,7.9,1.68,20.25,4.39,33.78,12a101.09,101.09,0,0,1,25.82,20.69h3.11a91.72,91.72,0,0,0-15.83-27.91C123.44,90,117.28,85.33,107.64,78A173.32,173.32,0,0,0,86,63.74C81.54,61.28,77.64,59.41,74.71,58.08Z" style="fill:#31ae6d"/><path d="M70.44,93.54a153,153,0,0,1,19.17,5.12c8.63,2.92,18.22,6.24,28.66,13.48a90,90,0,0,1,16.51,14.8c-.31.89-.63,1.78-.94,2.66A115.05,115.05,0,0,0,95.3,118.21l-20.5.19Q72.63,106,70.44,93.54Z" style="fill:#16b094"/><path d="M75.75,122a102.06,102.06,0,0,1,17.66.95,95.83,95.83,0,0,1,25.24,7,85.08,85.08,0,0,1,10.63,5.7,187.61,187.61,0,0,0-22.4-.19c-6.23.32-9.76.82-10.63.94a92.53,92.53,0,0,0-17.08,4.18Z" style="fill:#0991a3"/><path d="M80.69,144.41a83.6,83.6,0,0,1,15.37-2.66,91.56,91.56,0,0,1,15.38.19A118.21,118.21,0,0,1,126.05,144a94.43,94.43,0,0,0-41.75,16.7Q82.49,152.57,80.69,144.41Z" style="fill:#0db2b8"/><path d="M85.24,165.48a84.05,84.05,0,0,1,38.16-13.29,111.94,111.94,0,0,0-33.79,30.18,50.23,50.23,0,0,1-3.23-9.49A51.43,51.43,0,0,1,85.24,165.48Z" style="fill:#0dbbc1"/><path d="M93.09,185.41a97.35,97.35,0,0,1,25.94-22,97.66,97.66,0,0,0-3,12c-.44,2.4-.61,3.85-1.64,5.69a14.24,14.24,0,0,1-7.09,6C100.4,189.75,93.93,185.92,93.09,185.41Z" style="fill:#0db2b8"/><path d="M75.12,56.71A32.53,32.53,0,0,1,86.76,46.34a34.78,34.78,0,0,1,12.4-3.55c4.54-.59,8-1,11.9.51,2.83,1.13,4.62,2.8,7.59,5.57,3.48,3.24,3.71,4.52,7.34,7.59a27.38,27.38,0,0,0,5.82,4A25.42,25.42,0,0,0,142.19,63a27,27,0,0,0,11.89-1.77,29.1,29.1,0,0,0,9.11-6.07c3.47-3.16,4.79-5.6,9.62-9.37a32.84,32.84,0,0,1,2.78-2c8.46-5.17,21.28.57,22.78,1.26a35.68,35.68,0,0,1,16.45,16.2,40.52,40.52,0,0,1,4.3,16.7,46.89,46.89,0,0,1-.5,10.38c-4,26-15.67,73.94-16.74,82.53a37.57,37.57,0,0,1-1,5.32c-.8,3-1.37,5.1-2.66,6.93-2.58,3.67-7.52,5.37-11.77,5.22A15.39,15.39,0,0,1,176,183.51a15.06,15.06,0,0,1-2.94-4.75c-4-10.09-13.73-39-16.16-45.74a110.42,110.42,0,0,0-11-22.78C133.94,91.71,118.67,81.72,105,72.78A201,201,0,0,0,75.12,56.71Z" style="fill:#fff"/><path d="M60.59,206.27h4.64V239.4H60.59L43.08,214.64V239.4H38.44V206.27h4.64l17.51,24.8Z" style="fill:#fff"/><path d="M71.41,218.93a12.2,12.2,0,1,1-3.58,8.63A11.77,11.77,0,0,1,71.41,218.93Zm8.68.92a7.3,7.3,0,0,0-5.44,2.22,8,8,0,0,0,0,11,7.28,7.28,0,0,0,5.42,2.25,7.13,7.13,0,0,0,5.37-2.23,8.06,8.06,0,0,0,0-11A7.16,7.16,0,0,0,80.09,219.85Z" style="fill:#fff"/><path d="M94.86,239.4V227c0-3.78.9-6.63,2.72-8.54a9.47,9.47,0,0,1,7.21-2.86h.48v4.49h-.48q-5.3,0-5.3,6.91V239.4Z" style="fill:#fff"/><path d="M120.7,220.23h-5.12v8q0,6.44,5.12,6.86v4.5a9.89,9.89,0,0,1-7.13-3q-2.62-2.81-2.62-8.3v-8h-3.51v-4.5H111v-8.47h4.63v8.47h5.12Z" style="fill:#fff"/><path d="M133.66,215.35a10.12,10.12,0,0,1,7.58,2.91q2.83,2.91,2.83,8.69V239.4h-4.63V227q0-7.09-5.78-7.1t-5.77,7V239.4h-4.64V206.27h4.64v11.59A6.93,6.93,0,0,1,133.66,215.35Z" style="fill:#fff"/><path d="M169.16,206.27A16.82,16.82,0,0,1,181.27,211a16.68,16.68,0,0,1,0,23.66,16.79,16.79,0,0,1-12.11,4.74h-9.7V206.27Zm0,28.72a12.21,12.21,0,0,0,8.85-3.45,12.46,12.46,0,0,0,0-17.42,12.21,12.21,0,0,0-8.85-3.45h-5.07V235Z" style="fill:#fff"/><path d="M192.09,236.22a11.75,11.75,0,0,1-3.53-8.61A12,12,0,0,1,192,219a11.42,11.42,0,0,1,8.54-3.6A12.12,12.12,0,0,1,209,218.6a11.53,11.53,0,0,1,3.79,8.54,15.12,15.12,0,0,1-.14,2.13H193.53a6.38,6.38,0,0,0,2.25,4.33,7.13,7.13,0,0,0,4.8,1.68,7.34,7.34,0,0,0,5.68-2.37l5.54.05a12.29,12.29,0,0,1-4.55,4.94,12,12,0,0,1-6.53,1.87A11.69,11.69,0,0,1,192.09,236.22Zm1.44-10.74h14.29a7.67,7.67,0,0,0-2.62-4,7,7,0,0,0-4.48-1.58,7.07,7.07,0,0,0-4.61,1.56A7.59,7.59,0,0,0,193.53,225.48Z" style="fill:#fff"/><path d="M231.58,239.4V227q0-7.09-5.77-7.1T220,227V239.4h-4.64V227q0-5.77,2.84-8.69a11.31,11.31,0,0,1,15.15,0q2.84,2.91,2.84,8.69V239.4Z" style="fill:#fff"/><path d="M250.7,220.23h-5.11v8q0,6.44,5.11,6.86v4.5a9.87,9.87,0,0,1-7.12-3q-2.62-2.81-2.63-8.3v-8h-3.5v-4.5H241v-8.47h4.64v8.47h5.11Z" style="fill:#fff"/></svg>