<svg xmlns="http://www.w3.org/2000/svg" viewBox="0 0 566.93 141.73"><title>logo</title><path d="M19.11,25.41a25.11,25.11,0,0,1,9-8.06,27,27,0,0,1,9.64-2.75c3.52-.47,6.21-.82,9.24.39,2.2.87,3.59,2.17,5.9,4.33,2.7,2.52,2.89,3.51,5.7,5.9a21.45,21.45,0,0,0,4.53,3.14,19.67,19.67,0,0,0,8.06,2A21,21,0,0,0,80.46,29a22.54,22.54,0,0,0,7.08-4.72C90.23,21.78,91.26,19.88,95,17a22.6,22.6,0,0,1,2.16-1.58c6.57-4,16.53.45,17.7,1A27.71,27.71,0,0,1,127.66,29a31.54,31.54,0,0,1,3.34,13,35.88,35.88,0,0,1-.39,8.06c-3.14,20.23-12.17,57.46-13,64.14a31.4,31.4,0,0,1-.82,4.13,16.3,16.3,0,0,1-2.06,5.38c-2,2.85-5.84,4.17-9.14,4.06a12,12,0,0,1-8.12-3.76,11.82,11.82,0,0,1-2.28-3.69C92.08,112.41,84.52,90,82.63,84.7A85.63,85.63,0,0,0,74.07,67C64.81,52.6,52.94,44.85,42.31,37.9A156.36,156.36,0,0,0,19.11,25.41Z" style="fill:#02313c"/><path d="M18.79,26.48a20.2,20.2,0,0,0-2.88,5,22.35,22.35,0,0,0-1.47,7.37A50.8,50.8,0,0,0,15.32,52c2.4.28,5.83.76,9.88,1.62a89.48,89.48,0,0,1,26.26,9.29A79,79,0,0,1,71.51,79h2.42a71,71,0,0,0-12.3-21.68c-5-6-9.77-9.63-17.25-15.34A135.51,135.51,0,0,0,27.56,30.87C24.09,29,21.07,27.51,18.79,26.48Z" style="fill:#31ae6d"/><path d="M15.47,54a116.92,116.92,0,0,1,14.9,4c6.7,2.27,14.15,4.84,22.27,10.47A70.55,70.55,0,0,1,65.47,80l-.74,2.07A89.26,89.26,0,0,0,34.79,73.2l-15.93.15Z" style="fill:#16b094"/><path d="M19.6,76.15a78.72,78.72,0,0,1,13.71.74,74.43,74.43,0,0,1,19.62,5.45,67.33,67.33,0,0,1,8.26,4.43,147.3,147.3,0,0,0-17.4-.15c-4.85.25-7.59.64-8.26.74A72,72,0,0,0,22.25,90.6Q20.93,83.37,19.6,76.15Z" style="fill:#0991a3"/><path d="M23.43,93.55a65.18,65.18,0,0,1,12-2.06,72.07,72.07,0,0,1,11.95.14,93.37,93.37,0,0,1,11.35,1.63,73.32,73.32,0,0,0-32.44,13Q24.83,99.9,23.43,93.55Z" style="fill:#0db2b8"/><path d="M27,109.92a66.23,66.23,0,0,1,12.1-6.19A65.26,65.26,0,0,1,56.62,99.6a87.1,87.1,0,0,0-26.25,23.45,38,38,0,0,1-2.51-7.37A39.89,39.89,0,0,1,27,109.92Z" style="fill:#0dbbc1"/><path d="M33.07,125.41a77,77,0,0,1,8-8.26,75.2,75.2,0,0,1,12.2-8.85,73.17,73.17,0,0,0-2.36,9.34,12.86,12.86,0,0,1-1.28,4.43,11.09,11.09,0,0,1-5.51,4.62C38.75,128.79,33.72,125.81,33.07,125.41Z" style="fill:#0db2b8"/><path d="M189.49,41.55h8V98.66h-8L159.3,56V98.66h-8V41.55h8L189.49,84.3Z" style="fill:#02313c"/><path d="M208.13,63.37a21.05,21.05,0,0,1,35.94,14.89,21.05,21.05,0,1,1-35.94-14.89Zm15,1.59a12.58,12.58,0,0,0-9.38,3.84,13.68,13.68,0,0,0,0,18.88,12.54,12.54,0,0,0,9.34,3.88,12.36,12.36,0,0,0,9.26-3.84,13.92,13.92,0,0,0,0-18.92A12.36,12.36,0,0,0,223.1,65Z" style="fill:#02313c"/><path d="M248.55,98.66V77.36q0-9.78,4.69-14.72t12.44-4.94h.82v7.75h-.82q-9.14,0-9.13,11.91v21.3Z" style="fill:#02313c"/><path d="M293.1,65.62h-8.81v13.7q0,11.1,8.81,11.83V98.9q-7.75-.33-12.28-5.18T276.29,79.4V65.62h-6V57.86h6V43.26h8v14.6h8.81Z" style="fill:#02313c"/><path d="M315.45,57.21q8.16,0,13.05,5t4.9,15V98.66h-8V77.2Q325.4,65,315.45,65T305.5,77V98.66h-8V41.55h8v20Q308.92,57.21,315.45,57.21Z" style="fill:#02313c"/><path d="M376.64,41.55a29,29,0,0,1,20.88,8.16A27.1,27.1,0,0,1,406,70.1a27.13,27.13,0,0,1-8.49,20.4,29,29,0,0,1-20.88,8.16H359.91V41.55Zm0,49.52a21,21,0,0,0,15.25-6,20.06,20.06,0,0,0,6.12-15,20.07,20.07,0,0,0-6.12-15,21,21,0,0,0-15.25-6h-8.73V91.07Z" style="fill:#02313c"/><path d="M416.16,93.19a20.29,20.29,0,0,1-6.07-14.85,20.74,20.74,0,0,1,6-14.93,19.71,19.71,0,0,1,14.73-6.2,21,21,0,0,1,14.52,5.59,19.94,19.94,0,0,1,6.53,14.73,24,24,0,0,1-.25,3.67h-33a11,11,0,0,0,3.88,7.46,12.28,12.28,0,0,0,8.28,2.9,12.69,12.69,0,0,0,9.79-4.08l9.54.08a21.21,21.21,0,0,1-7.83,8.53,20.75,20.75,0,0,1-11.26,3.22A20.2,20.2,0,0,1,416.16,93.19Zm2.49-18.52h24.64a13.08,13.08,0,0,0-4.53-7A11.88,11.88,0,0,0,431.05,65a12.2,12.2,0,0,0-7.95,2.69A13.17,13.17,0,0,0,418.65,74.67Z" style="fill:#02313c"/><path d="M484.24,98.66V77.2q0-12.24-9.95-12.24t-10,12.24V98.66h-8V77.2q0-9.95,4.9-15t13.05-5q8.16,0,13,5t4.9,15V98.66Z" style="fill:#02313c"/><path d="M517.21,65.62h-8.82v13.7q0,11.1,8.82,11.83V98.9q-7.76-.33-12.28-5.18T500.4,79.4V65.62h-6V57.86h6V43.26h8v14.6h8.82Z" style="fill:#02313c"/></svg>