<svg xmlns="http://www.w3.org/2000/svg" viewBox="0 0 283.46 283.46"><title>logo</title><path d="M71.71,56.89A32.27,32.27,0,0,1,83.35,46.51,34.47,34.47,0,0,1,95.75,43c4.54-.6,8-1,11.89.5,2.84,1.13,4.63,2.8,7.6,5.57,3.47,3.25,3.71,4.53,7.34,7.59a27,27,0,0,0,5.82,4,25.25,25.25,0,0,0,10.37,2.53,27,27,0,0,0,11.9-1.77,29.1,29.1,0,0,0,9.11-6.07c3.46-3.16,4.79-5.6,9.62-9.37a29.91,29.91,0,0,1,2.78-2c8.45-5.17,21.27.57,22.78,1.27a35.68,35.68,0,0,1,16.45,16.19,40.68,40.68,0,0,1,4.3,16.71,46,46,0,0,1-.51,10.37c-4,26-15.66,73.94-16.73,82.54a38.3,38.3,0,0,1-1.05,5.31c-.79,3-1.36,5.1-2.65,6.93-2.59,3.67-7.52,5.37-11.77,5.22a15.3,15.3,0,0,1-10.44-4.84,15,15,0,0,1-2.94-4.74c-4-10.1-13.74-39-16.17-45.75a109.6,109.6,0,0,0-11-22.78C130.53,91.88,115.25,81.9,101.57,73A200.55,200.55,0,0,0,71.71,56.89Z" style="fill:#02313c"/><path d="M71.3,58.26a26.13,26.13,0,0,0-3.71,6.41,29,29,0,0,0-1.89,9.49,65.42,65.42,0,0,0,1.14,16.89c3.09.36,7.49,1,12.71,2.09,7.91,1.68,20.26,4.39,33.79,12a101.3,101.3,0,0,1,25.81,20.69h3.12a91.51,91.51,0,0,0-15.83-27.9C120,90.2,113.86,85.5,104.23,78.15A173.37,173.37,0,0,0,82.59,63.91C78.12,61.45,74.23,59.59,71.3,58.26Z" style="fill:#31ae6d"/><path d="M67,93.71A153.31,153.31,0,0,1,86.2,98.84c8.63,2.91,18.22,6.23,28.66,13.47a90.48,90.48,0,0,1,16.51,14.81c-.32.88-.63,1.77-1,2.65a114.58,114.58,0,0,0-38.53-11.38l-20.5.19Q69.22,106.15,67,93.71Z" style="fill:#16b094"/><path d="M72.34,122.18a103.91,103.91,0,0,1,17.65.95,95.83,95.83,0,0,1,25.25,7,86.42,86.42,0,0,1,10.63,5.7,189.77,189.77,0,0,0-22.4-.19c-6.24.32-9.76.82-10.63,1a92.64,92.64,0,0,0-17.08,4.17Z" style="fill:#0991a3"/><path d="M77.28,144.58a83.6,83.6,0,0,1,15.37-2.66,91.44,91.44,0,0,1,15.37.19,118.41,118.41,0,0,1,14.62,2.09,94.41,94.41,0,0,0-41.76,16.7Z" style="fill:#0db2b8"/><path d="M81.83,165.65A84.38,84.38,0,0,1,120,152.36,112.09,112.09,0,0,0,86.2,182.54a50,50,0,0,1-4.37-16.89Z" style="fill:#0dbbc1"/><path d="M89.68,185.58A95.79,95.79,0,0,1,99.93,175a97.4,97.4,0,0,1,15.69-11.39,98.11,98.11,0,0,0-3,12c-.44,2.4-.61,3.86-1.65,5.7a14.13,14.13,0,0,1-7.08,5.94C97,189.92,90.51,186.09,89.68,185.58Z" style="fill:#0db2b8"/><path d="M57.18,206.44h4.64v33.13H57.18L39.67,214.82v24.75H35V206.44h4.64l17.51,24.8Z" style="fill:#02313c"/><path d="M68,219.1a12.23,12.23,0,1,1-3.57,8.64A11.77,11.77,0,0,1,68,219.1Zm8.69.92a7.33,7.33,0,0,0-5.45,2.23,8,8,0,0,0,0,10.95,7.27,7.27,0,0,0,5.42,2.25,7.19,7.19,0,0,0,5.37-2.22,8.08,8.08,0,0,0,0-11A7.2,7.2,0,0,0,76.68,220Z" style="fill:#02313c"/><path d="M91.44,239.57V227.22q0-5.68,2.72-8.55a9.53,9.53,0,0,1,7.22-2.86h.47v4.5h-.47q-5.3,0-5.3,6.91v12.35Z" style="fill:#02313c"/><path d="M117.28,220.4h-5.11v7.95c0,4.29,1.71,6.58,5.11,6.86v4.5a9.9,9.9,0,0,1-7.12-3q-2.62-2.82-2.63-8.31v-8H104v-4.49h3.5v-8.48h4.64v8.48h5.11Z" style="fill:#02313c"/><path d="M130.25,215.53a10.1,10.1,0,0,1,7.57,2.91q2.84,2.91,2.84,8.68v12.45H136V227.12q0-7.1-5.77-7.1t-5.77,7v12.54h-4.64V206.44h4.64V218A6.89,6.89,0,0,1,130.25,215.53Z" style="fill:#02313c"/><path d="M165.74,206.44a16.83,16.83,0,0,1,12.12,4.73,16.69,16.69,0,0,1,0,23.67,16.83,16.83,0,0,1-12.12,4.73H156V206.44Zm0,28.73a12.14,12.14,0,0,0,8.85-3.46,12.45,12.45,0,0,0,0-17.41,12.14,12.14,0,0,0-8.85-3.46h-5.06v24.33Z" style="fill:#02313c"/><path d="M188.67,236.4a11.78,11.78,0,0,1-3.52-8.62,12,12,0,0,1,3.48-8.66,11.42,11.42,0,0,1,8.54-3.59,12.18,12.18,0,0,1,8.42,3.24,11.55,11.55,0,0,1,3.79,8.54,15.12,15.12,0,0,1-.14,2.13H190.12a6.37,6.37,0,0,0,2.24,4.33,7.14,7.14,0,0,0,4.81,1.68,7.36,7.36,0,0,0,5.68-2.37l5.53,0a12.35,12.35,0,0,1-4.54,5,12.1,12.1,0,0,1-6.53,1.87A11.73,11.73,0,0,1,188.67,236.4Zm1.45-10.75h14.29a7.6,7.6,0,0,0-2.63-4,6.91,6.91,0,0,0-4.47-1.59,7,7,0,0,0-4.61,1.56A7.63,7.63,0,0,0,190.12,225.65Z" style="fill:#02313c"/><path d="M228.17,239.57V227.12q0-7.1-5.78-7.1t-5.77,7.1v12.45H212V227.12q0-5.77,2.84-8.68a11.3,11.3,0,0,1,15.14,0c1.9,1.94,2.84,4.83,2.84,8.68v12.45Z" style="fill:#02313c"/><path d="M247.29,220.4h-5.11v7.95q0,6.43,5.11,6.86v4.5a9.94,9.94,0,0,1-7.13-3q-2.62-2.82-2.62-8.31v-8H234v-4.49h3.5v-8.48h4.64v8.48h5.11Z" style="fill:#02313c"/></svg>