<?xml version="1.0" encoding="UTF-8"?>
<svg id="Layer_1" xmlns="http://www.w3.org/2000/svg" version="1.1" viewBox="0 0 500 500">
  <!-- Generator: Adobe Illustrator 29.1.0, SVG Export Plug-In . SVG Version: 2.1.0 Build 142)  -->
  <defs>
    <style>
      .st0 {
        fill: #31ae6d;
      }

      .st1 {
        fill: #02313c;
      }

      .st2 {
        fill: #fff;
      }

      .st3 {
        fill: #0db2b8;
      }

      .st4 {
        fill: #16b094;
      }

      .st5 {
        fill: #0991a3;
      }

      .st6 {
        fill: #0dbbc1;
      }
    </style>
  </defs>
  <rect class="st1" x="0" width="500" height="500"/>
  <g>
    <path class="st2" d="M96.2,120c4.3-6.2,12.4-16.1,26-23.1,11-5.7,20.6-7,27.7-7.9,10.1-1.3,17.8-2.3,26.5,1.1,6.3,2.5,10.3,6.2,16.9,12.4,7.8,7.2,8.3,10.1,16.4,16.9,3.7,3.1,7.4,6.2,13,9,9.7,4.8,18.4,5.4,23.1,5.6,4.7.3,14.9.7,26.5-4,9.7-3.9,16-9.6,20.3-13.5,7.7-7,10.7-12.5,21.4-20.9,2.4-1.9,4.3-3.3,6.2-4.5,18.9-11.5,47.4,1.3,50.8,2.8,23,10.7,33.5,30,36.7,36.1,8.1,15.5,9.1,30.2,9.6,37.3.7,11-.6,19.5-1.1,23.1-9,58-34.9,164.9-37.3,184.1-.1,1-.7,5.7-2.3,11.9-1.8,6.6-3.1,11.4-5.9,15.5-5.8,8.2-16.8,12-26.2,11.6-13.4-.5-21.7-9.1-23.3-10.8-4-4.4-5.8-8.8-6.6-10.6-8.9-22.5-30.6-87-36.1-102-3.4-9.4-10.6-29.1-24.6-50.8-26.6-41.3-60.6-63.6-91.2-83.5-15.2-9.9-37.6-23.2-66.6-35.8Z"/>
    <g>
      <path class="st0" d="M95.2,123c-2.5,3.2-5.7,7.9-8.3,14.3-1.9,4.8-3.5,10.8-4.2,21.2-.6,8.7-.6,21.6,2.5,37.7,6.9.8,16.7,2.2,28.4,4.7,17.6,3.7,45.2,9.8,75.4,26.7,14.7,8.2,36.2,22.4,57.6,46.1h6.9c-10.7-29.6-25-49.9-35.3-62.2-14.3-17.1-28-27.6-49.5-44-22.8-17.4-40.9-27.7-48.3-31.8-10-5.5-18.6-9.6-25.2-12.6Z"/>
      <path class="st4" d="M85.7,202.1c10.4,2.1,25.3,5.5,42.8,11.4,19.3,6.5,40.6,13.9,63.9,30.1,9.6,6.7,23,17.2,36.8,33-.7,2-1.4,4-2.1,5.9-11.3-5.7-25.4-11.6-41.9-16.5-16.5-4.9-31.5-7.5-44-8.9-15.2.1-30.5.3-45.7.4-3.2-18.5-6.5-37-9.7-55.5Z"/>
      <path class="st5" d="M97.6,265.6c15.9-.5,29.4.7,39.4,2.1,30.4,4.3,51.6,13.6,56.3,15.7,10.1,4.5,18.1,9.2,23.7,12.7-20.6-1.4-37.6-1.1-50-.4-13.9.7-21.8,1.8-23.7,2.1-16.1,2.3-29.1,6.2-38.1,9.3-2.5-13.8-5.1-27.7-7.6-41.5Z"/>
      <path class="st3" d="M108.6,315.6c13.5-3.7,25.3-5.2,34.3-5.9,14.4-1.1,25.4-.3,34.3.4,13.1,1,24.1,2.9,32.6,4.7-14.4,2-33.4,6.2-54.2,15.2-16,6.9-28.9,14.9-38.9,22-2.7-12.1-5.4-24.3-8-36.4Z"/>
      <path class="st6" d="M118.7,362.6c9.1-5.9,20.6-12.3,34.7-17.8,19.5-7.5,37.1-10.6,50.4-11.9-12.3,7.2-27.1,17.2-42.3,30.9-14.1,12.8-24.9,25.5-33,36.4-2.6-5.7-5.3-12.8-7.2-21.2-1.4-6.1-2.2-11.6-2.5-16.5Z"/>
      <path class="st3" d="M136.2,407c6.1-7.4,13.7-15.5,22.9-23.7,12.4-11.1,24.6-19.3,35-25.4-3.6,11.2-5.6,20.3-6.8,26.8-1,5.4-1.4,8.6-3.7,12.7-4.7,8.4-12.9,12.1-15.8,13.3-15.3,6-29.7-2.5-31.6-3.7Z"/>
    </g>
  </g>
</svg>